# xmcd
#
# Track frame offsets: 
#        150
#        19608
#        38707
#        60465
#        91974
#        104067
#        116698
#        128619
#        139624
#        151323
#        162532
#        176047
#
# Disc length: 2537 seconds
#
# Revision: 1
# Processed by: cddbd v1.5.2PL0 Copyright (c) Steve Scherf et al.
# Submitted via: ExactAudioCopy v0.99pb3
#
DISCID=9a09e70c
DTITLE=Shorty Rogers - Creative West Coast Swing Vol - 3
DYEAR=1900
DGENRE=Jazz
TTITLE0=Free
TTITLE1=Evolution
TTITLE2=Margo
TTITLE3=Bobalob
TTITLE4=Hot Shoe
TTITLE5=Lonely Way 
TTITLE6=Blues for Brando
TTITLE7=Windswept 
TTITLE8=Beerle 
TTITLE9=Chino
TTITLE10=Scramble 
TTITLE11=The Wild One
EXTD=
EXTT0=
EXTT1=
EXTT2=
EXTT3=
EXTT4=
EXTT5=
EXTT6=
EXTT7=
EXTT8=
EXTT9=
EXTT10=
EXTT11=
PLAYORDER=
